#!OML:ASF H:\Not Pregnant\Project 1\Capture day 1\Session 1\non-pregnant.ASF
:FULLY-SPECIFIED
:DEGREES
865
root 3.00724 1.20878 18.3483 -102.573 -6.15629 0.590248
lowerback 14.3035 0.0855868 3.01573
upperback 3.46038 0.455266 -2.13049
thorax -4.3139 0.199849 -4.03511
lowerneck 12.9678 -11.331 -29.4141
upperneck -6.22351 -22.6755 45.4949
head 6.567 -13.0182 22.1253
rclavicle 1.03368e-014 1.26166e-014
rhumerus -47.3989 -26.0239 -48.816
rradius 19.6805
rwrist 57.4081
rhand -9.58683 -3.56901
rfingers 7.12502
rthumb 16.3815 -32.8972
lclavicle 1.03368e-014 1.26166e-014
lhumerus -52.2526 -11.1477 78.0593
lradius 29.6025
lwrist -9.89367
lhand 5.17896 -13.4004
lfingers 7.12502
lthumb 30.5407 14.0876
rfemur 6.96576 -5.86407 21.2817
rtibia 26.8926
rfoot 20.5599 20.0405
rtoes -5.92405
lfemur 5.52312 5.8765 -10.6235
ltibia 29.4354
lfoot 16.9265 -25.2577
ltoes -13.4928
866
root 3.00699 1.20873 18.3478 -102.519 -6.17417 0.586853
lowerback 14.2477 0.0891903 3.04088
upperback 3.45551 0.462649 -2.12967
thorax -4.28777 0.203871 -4.04895
lowerneck 12.9338 -11.3527 -29.405
upperneck -6.21635 -22.6994 45.4838
head 6.58205 -13.0243 22.0979
rclavicle -2.0276e-014 8.50115e-015
rhumerus -47.3999 -26.0503 -48.8153
rradius 19.6794
rwrist 57.3871
rhand -9.58905 -3.57631
rfingers 7.12502
rthumb 16.3794 -32.9047
lclavicle -2.0276e-014 8.50115e-015
lhumerus -52.2307 -11.1741 78.0631
lradius 29.6018
lwrist -9.89126
lhand 5.16959 -13.4033
lfingers 7.12502
lthumb 30.5317 14.0864
rfemur 6.89769 -5.85882 21.3112
rtibia 26.9084
rfoot 20.855 19.7786
rtoes -5.4807
lfemur 5.46139 5.87851 -10.6091
ltibia 29.4292
lfoot 16.9473 -25.2517
ltoes -13.3625
867
root 3.00651 1.20858 18.3469 -102.431 -6.2168 0.584017
lowerback 14.1576 0.091924 3.08978
upperback 3.44117 0.471752 -2.12378
thorax -4.25259 0.208627 -4.07077
lowerneck 12.9033 -11.3736 -29.3939
upperneck -6.21194 -22.7233 45.4774
head 6.59651 -13.0312 22.0742
rclavicle 3.20043e-014 -7.83957e-015
rhumerus -47.4067 -26.084 -48.8104
rradius 19.6777
rwrist 57.3771
rhand -9.50056 -3.5706
rfingers 7.12502
rthumb 16.4645 -32.8919
lclavicle 3.20043e-014 -7.83957e-015
lhumerus -52.2081 -11.2042 78.0636
lradius 29.6016
lwrist -9.89399
lhand 5.16452 -13.4079
lfingers 7.12502
lthumb 30.5269 14.0827
rfemur 6.79126 -5.85476 21.3736
rtibia 26.9231
rfoot 21.4021 19.2766
rtoes -4.62047
lfemur 5.35676 5.8873 -10.5685
ltibia 29.4251
lfoot 17.0013 -25.2396
ltoes -13.1995
868
root 3.00626 1.20849 18.3462 -102.377 -6.23175 0.580595
lowerback 14.1021 0.0953037 3.1096
upperback 3.43279 0.477941 -2.12309
thorax -4.23046 0.211948 -4.08153
lowerneck 12.879 -11.3889 -29.388
upperneck -6.20503 -22.7416 45.4711
head 6.60891 -13.0364 22.056
rclavicle 2.26615e-014 1.1281e-014
rhumerus -47.4073 -26.1059 -48.8071
rradius 19.672
rwrist 57.3689
rhand -9.36953 -3.55981
rfingers 7.12502
rthumb 16.5907 -32.8706
lclavicle 2.26615e-014 1.1281e-014
lhumerus -52.193 -11.2228 78.0635
lradius 29.6008
lwrist -9.9027
lhand 5.16266 -13.4132
lfingers 7.12502
lthumb 30.5251 14.0777
rfemur 6.72315 -5.85229 21.399
rtibia 26.9365
rfoot 21.6892 19.0083
rtoes -4.15006
lfemur 5.29461 5.89249 -10.5573
ltibia 29.4181
lfoot 17.034 -25.233
ltoes -13.1242
869
root 3.00617 1.20844 18.3457 -102.35 -6.22331 0.576883
lowerback 14.0758 0.0991362 3.1042
upperback 3.42949 0.481518 -2.12658
thorax -4.21936 0.213979 -4.08234
lowerneck 12.8533 -11.4014 -29.3852
upperneck -6.18949 -22.7583 45.462
head 6.62312 -13.0405 22.0381
rclavicle 2.50469e-014 -3.21969e-014
rhumerus -47.4043 -26.1193 -48.8026
rradius 19.6658
rwrist 57.3725
rhand -9.25065 -3.54718
rfingers 7.12502
rthumb 16.7051 -32.8484
lclavicle 2.50469e-014 -3.21969e-014
lhumerus -52.1855 -11.2345 78.0654
lradius 29.6016
lwrist -9.91051
lhand 5.16471 -13.4164
lfingers 7.12502
lthumb 30.5271 14.0742
rfemur 6.68696 -5.85007 21.3937
rtibia 26.9491
rfoot 21.7727 18.9327
rtoes -4.01833
lfemur 5.26867 5.8955 -10.5708
ltibia 29.4072
lfoot 17.0495 -25.2325
ltoes -13.1191
870
root 3.00632 1.20844 18.3454 -102.359 -6.18555 0.572353
lowerback 14.0873 0.103785 3.06887
upperback 3.434 0.482425 -2.13604
thorax -4.22108 0.214731 -4.07252
lowerneck 12.8295 -11.4106 -29.3852
upperneck -6.17001 -22.7715 45.4514
head 6.63659 -13.0431 22.0223
rclavicle -7.7526e-015 2.40871e-014
rhumerus -47.4004 -26.1332 -48.7896
rradius 19.6608
rwrist 57.3988
rhand -9.15391 -3.53276
rfingers 7.12502
rthumb 16.7983 -32.8261
lclavicle -7.7526e-015 2.40871e-014
lhumerus -52.1832 -11.2359 78.067
lradius 29.6019
lwrist -9.92092
lhand 5.16599 -13.4189
lfingers 7.12502
lthumb 30.5283 14.0714
rfemur 6.69216 -5.84983 21.3491
rtibia 26.9616
rfoot 21.588 19.1173
rtoes -4.3419
lfemur 5.29136 5.89445 -10.6149
ltibia 29.3891
lfoot 17.051 -25.2356
ltoes -13.2033
871
root 3.00669 1.20848 18.3455 -102.398 -6.12288 0.567728
lowerback 14.1308 0.109422 3.00881
upperback 3.44655 0.481528 -2.15042
thorax -4.23207 0.214686 -4.05396
lowerneck 12.8049 -11.419 -29.3867
upperneck -6.15229 -22.7823 45.4402
head 6.6487 -13.0444 22.0071
rclavicle 2.42517e-014 -2.18353e-014
rhumerus -47.3934 -26.147 -48.7741
rradius 19.6579
rwrist 57.4327
rhand -9.10808 -3.52105
rfingers 7.12502
rthumb 16.8424 -32.8106
lclavicle 2.42517e-014 -2.18353e-014
lhumerus -52.1821 -11.2309 78.0705
lradius 29.6013
lwrist -9.93018
lhand 5.16401 -13.423
lfingers 7.12502
lthumb 30.5264 14.0677
rfemur 6.73125 -5.84984 21.2713
rtibia 26.975
rfoot 21.171 19.5209
rtoes -5.03657
lfemur 5.35346 5.88615 -10.686
ltibia 29.3664
lfoot 17.0471 -25.2315
ltoes -13.3224
872
root 3.0072 1.20855 18.3458 -102.463 -6.04287 0.563173
lowerback 14.199 0.116041 2.93184
upperback 3.46575 0.479793 -2.16826
thorax -4.24976 0.214309 -4.02966
lowerneck 12.7816 -11.4263 -29.3916
upperneck -6.13624 -22.7921 45.4306
head 6.66073 -13.0456 21.9946
rclavicle 1.39149e-015 -1.15481e-014
rhumerus -47.384 -26.1563 -48.7608
rradius 19.6542
rwrist 57.4543
rhand -9.07106 -3.50901
rfingers 7.12502
rthumb 16.878 -32.7956
lclavicle 1.39149e-015 -1.15481e-014
lhumerus -52.1798 -11.2198 78.0742
lradius 29.5992
lwrist -9.93961
lhand 5.16052 -13.428
lfingers 7.12502
lthumb 30.5231 14.0633
rfemur 6.79711 -5.84942 21.1704
rtibia 26.9901
rfoot 20.5833 20.0608
rtoes -5.92459
lfemur 5.44747 5.87313 -10.7754
ltibia 29.3399
lfoot 17.0288 -25.2295
ltoes -13.4714
873
root 3.00749 1.20846 18.3457 -102.486 -5.99388 0.559832
lowerback 14.2239 0.120978 2.88394
upperback 3.46744 0.479359 -2.17904
thorax -4.26195 0.214206 -4.01411
lowerneck 12.7923 -11.4215 -29.3974
upperneck -6.12991 -22.7894 45.4243
head 6.65827 -13.0451 21.995
rclavicle -4.57205e-015 3.57191e-016
rhumerus -47.3908 -26.149 -48.7523
rradius 19.6551
rwrist 57.4526
rhand -9.0653 -3.50427
rfingers 7.12502
rthumb 16.8836 -32.7903
lclavicle -4.57205e-015 3.57191e-016
lhumerus -52.1914 -11.2137 78.0774
lradius 29.5977
lwrist -9.94918
lhand 5.15569 -13.4354
lfingers 7.12502
lthumb 30.5185 14.0567
rfemur 6.81492 -5.85049 21.1101
rtibia 27.0066
rfoot 20.2855 20.3333
rtoes -6.33583
lfemur 5.48917 5.86494 -10.8326
ltibia 29.3167
lfoot 17.0401 -25.2172
ltoes -13.5342
874
root 3.00774 1.2084 18.3456 -102.505 -5.94669 0.556597
lowerback 14.2434 0.1251 2.83408
upperback 3.46073 0.477442 -2.18783
thorax -4.28026 0.213106 -3.99509
lowerneck 12.8244 -11.4069 -29.4093
upperneck -6.11585 -22.7802 45.4138
head 6.65048 -13.0438 22.0014
rclavicle 1.19271e-014 -2.49816e-014
rhumerus -47.4036 -26.1142 -48.7525
rradius 19.6574
rwrist 57.4247
rhand -9.06705 -3.5054
rfingers 7.12502
rthumb 16.8819 -32.7916
lclavicle 1.19271e-014 -2.49816e-014
lhumerus -52.2197 -11.2028 78.0812
lradius 29.5965
lwrist -9.961
lhand 5.14875 -13.4472
lfingers 7.12502
lthumb 30.5118 14.0461
rfemur 6.8275 -5.8525 21.0522
rtibia 27.0236
rfoot 19.9981 20.5892
rtoes -6.68883
lfemur 5.52278 5.8582 -10.8878
ltibia 29.2998
lfoot 17.0441 -25.2084
ltoes -13.5788
875
root 3.00743 1.20811 18.3448 -102.438 -5.96707 0.555223
lowerback 14.1728 0.124433 2.84413
upperback 3.42721 0.476837 -2.17904
thorax -4.27729 0.212239 -3.99053
lowerneck 12.8757 -11.386 -29.4203
upperneck -6.10144 -22.7665 45.4037
head 6.63665 -13.0427 22.0131
rclavicle -4.37326e-015 -8.09116e-015
rhumerus -47.4277 -26.0714 -48.7534
rradius 19.6632
rwrist 57.3936
rhand -9.06663 -3.51007
rfingers 7.12502
rthumb 16.8823 -32.7963
lclavicle -4.37326e-015 -8.09116e-015
lhumerus -52.2569 -11.1961 78.0827
lradius 29.5965
lwrist -9.97415
lhand 5.14497 -13.4593
lfingers 7.12502
lthumb 30.5082 14.0347
rfemur 6.74272 -5.85555 21.0837
rtibia 27.0401
rfoot 20.3477 20.3074
rtoes -6.19715
lfemur 5.44559 5.86441 -10.8713
ltibia 29.2939
lfoot 17.094 -25.1926
ltoes -13.4621
876
root 3.00687 1.20773 18.3437 -102.336 -6.0132 0.553779
lowerback 14.0669 0.120152 2.87101
upperback 3.38166 0.47351 -2.15983
thorax -4.2679 0.209811 -3.98357
lowerneck 12.9307 -11.3621 -29.4334
upperneck -6.07732 -22.7509 45.3853
head 6.62184 -13.0404 22.0214
rclavicle -1.31198e-014 2.06363e-014
rhumerus -47.4484 -26.0119 -48.7582
rradius 19.6728
rwrist 57.3662
rhand -9.04674 -3.51972
rfingers 7.12502
rthumb 16.9014 -32.8043
lclavicle -1.31198e-014 2.06363e-014
lhumerus -52.3026 -11.1793 78.0844
lradius 29.5972
lwrist -9.9893
lhand 5.14458 -13.4716
lfingers 7.12502
lthumb 30.5079 14.0225
rfemur 6.61864 -5.86074 21.1488
rtibia 27.0577
rfoot 20.9406 19.7995
rtoes -5.31203
lfemur 5.32295 5.87649 -10.8275
ltibia 29.2948
lfoot 17.1597 -25.1744
ltoes -13.2886
877
root 3.00609 1.20726 18.3424 -102.205 -6.08267 0.552364
lowerback 13.9301 0.113858 2.91632
upperback 3.32681 0.469752 -2.13309
thorax -4.2514 0.207021 -3.97865
lowerneck 12.9872 -11.3378 -29.4467
upperneck -6.04917 -22.7362 45.3648
head 6.6077 -13.0384 22.0283
rclavicle 2.26615e-014 5.87657e-015
rhumerus -47.4693 -25.9466 -48.7638
rradius 19.6842
rwrist 57.342
rhand -9.01762 -3.52603
rfingers 7.12502
rthumb 16.9295 -32.8082
lclavicle 2.26615e-014 5.87657e-015
lhumerus -52.3521 -11.1637 78.0887
lradius 29.5991
lwrist -9.99972
lhand 5.14596 -13.4807
lfingers 7.12502
lthumb 30.5092 14.0132
rfemur 6.46059 -5.86598 21.2448
rtibia 27.0749
rfoot 21.7664 19.0385
rtoes -3.94991
lfemur 5.16002 5.8928 -10.7592
ltibia 29.3014
lfoot 17.2459 -25.1496
ltoes -13.0562
878
root 3.00538 1.20681 18.3415 -102.082 -6.14538 0.549425
lowerback 13.7648 0.155624 3.07866
upperback 3.35032 0.542507 -2.21294
thorax -4.12714 0.245513 -4.16505
lowerneck 12.9593 -11.4296 -29.2374
upperneck -6.12684 -22.8252 45.4242
head 6.60995 -13.0771 21.9609
rclavicle -9.74045e-015 -1.79527e-015
rhumerus -47.6168 -26.2651 -48.7232
rradius 19.7006
rwrist 57.4376
rhand -8.98922 -3.52113
rfingers 7.12502
rthumb 16.9568 -32.8009
lclavicle -9.74045e-015 -1.79527e-015
lhumerus -52.1971 -11.4618 78.0365
lradius 29.5985
lwrist -9.92305
lhand 5.15982 -13.4719
lfingers 7.12502
lthumb 30.5224 14.0195
rfemur 6.31338 -5.87242 21.3312
rtibia 27.0922
rfoot 22.6612 18.145
rtoes -2.27023
lfemur 5.00819 5.9064 -10.6984
ltibia 29.3057
lfoot 17.336 -25.1183
ltoes -12.8188
879
root 3.00497 1.20656 18.3405 -101.999 -6.17714 0.546036
lowerback 13.6177 0.171761 3.11771
upperback 3.30857 0.564867 -2.24389
thorax -4.088 0.256601 -4.22166
lowerneck 13.1691 -11.3807 -29.1165
upperneck -6.14556 -22.7671 45.4122
head 6.50774 -13.0689 21.972
rclavicle -6.75868e-015 2.40436e-014
rhumerus -47.7577 -26.2874 -48.7114
rradius 19.7228
rwrist 57.4574
rhand -8.9704 -3.51874
rfingers 7.12502
rthumb 16.9749 -32.797
lclavicle -6.75868e-015 2.40436e-014
lhumerus -52.263 -11.5901 78.0136
lradius 29.6149
lwrist -9.88659
lhand 5.16547 -13.4694
lfingers 7.12502
lthumb 30.5278 14.021
rfemur 6.21249 -5.87978 21.376
rtibia 27.1066
rfoot 23.1763 17.5977
rtoes -1.1821
lfemur 4.90824 5.91423 -10.6707
ltibia 29.3049
lfoot 17.3876 -25.0986
ltoes -12.6859
